<?xml version="1.0" encoding="UTF-8"?>
<svg id="Capa_2" data-name="Capa 2" xmlns="http://www.w3.org/2000/svg" viewBox="0 0 353.11 61.97">
  <defs>
    <style>
      .cls-1, .cls-2, .cls-3, .cls-4, .cls-5, .cls-6 {
        fill-rule: evenodd;
      }

      .cls-1, .cls-2, .cls-3, .cls-4, .cls-5, .cls-6, .cls-7, .cls-8, .cls-9, .cls-10 {
        stroke-width: 0px;
      }

      .cls-1, .cls-9 {
        fill: #005bc0;
      }

      .cls-2 {
        fill: #0fb53c;
      }

      .cls-3 {
        fill: #c1203b;
      }

      .cls-4, .cls-7 {
        fill: #cfcfcf;
      }

      .cls-5 {
        fill: #fbffff;
      }

      .cls-6 {
        fill: #f6d61d;
      }

      .cls-8 {
        fill: #fff;
      }

      .cls-10 {
        fill: #0072c7;
      }
    </style>
  </defs>
  <g id="Capa_1-2" data-name="Capa 1">
    <g>
      <path class="cls-4" d="M27.1,14.3v1.87c0,.55-.45,1-1,1h-.05v-.76c0-.69,0-1.39.05-2.08.36-.02.7-.03,1.01-.04M6.54,45.97v-25.71c0-.54-.02-1.84-.18-2.89-.01-.07-.02-.14-.03-.21h-2.7c-.19,0-.38-.05-.53-.15l-2.63-1.62c-.28-.18-.47-.49-.47-.85v-3.24c0-.55.45-1,1-1h1.26s0,.01,0,.01h0s0,.03,0,.03h0s0,.02,0,.02h0s0,.02,0,.02h0s0,.03,0,.03h0s0,.01,0,.01h0s0,.03,0,.03h0s0,.03,0,.03h0s0,.01,0,.01h0s0,.03,0,.03h0s0,.02,0,.02h0s0,.02,0,.02h0s0,.03,0,.03h0s0,.03,0,.03h0s0,.03,0,.03h0s0,.02,0,.02h0s0,.02,0,.02h0s0,.03,0,.03h0s0,.01,0,.01h0s0,.03,0,.03h0s0,.03,0,.03h0s0,.01,0,.01h0s0,.03,0,.03h0s0,.02,0,.02h0s0,.02,0,.02h0s0,.03,0,.03h0s0,.01,0,.01h0s0,.02,0,.02h0s0,.02,0,.02h0s0,.01,0,.01h0s0,.02,0,.02h0s0,.02,0,.02h0s0,.02,0,.02h0s0,.02,0,.02h0s0,.02,0,.02h0s0,.02,0,.02h0s0,.02,0,.02h0s0,.02,0,.02h0v.56c0,.36.19.67.47.85l2.63,1.62c.15.1.33.15.53.15h2.54v.02s0,0,0,0v.02s0,.02,0,.02h0s0,.02,0,.02v.02s0,0,0,0v.02s0,.02,0,.02h0s0,.02,0,.02v.02s0,.02,0,.02v.02s0,0,0,0v.02s0,.02,0,.02h0s0,.02,0,.02v.02s0,0,0,0v.02s0,.02,0,.02h0s0,.02,0,.02v.02s0,0,0,0v.02s0,.02,0,.02h0s0,.02,0,.02v.02s0,0,0,0v.02s0,.02,0,.02h0s0,.02,0,.02v.02s0,0,0,0h0s0,.03,0,.03h0s0,.02,0,.02v.02s0,0,0,0h0s0,.03,0,.03h0v.04s0,.01,0,.01h0s0,.03,0,.03h0v.04s0,.01,0,.01h0v.03h0v.04s0,.01,0,.01h0s0,.03,0,.03h0v.04s0,.01,0,.01h0v.04s0,0,0,0v.04h0s0,.02,0,.02v.02h0v.04h0v.04s0,0,0,0v.04h0v.04h0v29.1h0v.04h0v.02h0v.04h0s0,.02,0,.02v.02h0v.02h0v.04h0s0,.02,0,.02h0v.04h0s0,.02,0,.02h0v.04h0s0,.02,0,.02h0v.04s0,0,0,0h0s0,.03,0,.03h0v.02h0v.04h0s0,.02,0,.02h0s0,.02,0,.02v.02h0v.02h0v.04s0,0,0,0v.02s0,.02,0,.02h0s0,.03,0,.03h0v.04s0,0,0,0v.02s0,0,0,0h0s0,.03,0,.03v.02s0,.01,0,.01h0s0,.03,0,.03h0s0,.02,0,.02h0s0,.02,0,.02v.02s0,0,0,0v.02s0,.02,0,.02h0s0,.02,0,.02h0s0,.02,0,.02v.02s0,0,0,0v.02s0,0,0,0h0s0,.03,0,.03h0s0,.02,0,.02h0s0,.02,0,.02v.02s0,0,0,0v.02s0,.01,0,.01h0s0,.03,0,.03h0s0,.02,0,.02v.02s0,0,0,0v.02s0,0,0,0h0s0,.03,0,.03h0s-2.03,0-2.03,0c-.06,0-.12,0-.17,0ZM41.92,57.86l-.69,2.16c-.13.42-.53.69-.95.69h0s-36.65,0-36.65,0c-.19,0-.38-.05-.53-.15l-2.63-1.62c-.28-.18-.47-.49-.47-.85v-3.24c0-.55.45-1,1-1h1.23v.02s0,.02,0,.02h0s0,.02,0,.02v.02s0,.02,0,.02h0s0,.02,0,.02v.02s0,.02,0,.02h0s0,.02,0,.02v.02s0,.02,0,.02v.02s0,0,0,0v.02s0,.02,0,.02v.02s0,0,0,0h0s0,.03,0,.03v.02s0,.01,0,.01v.02s0,.02,0,.02v.02s0,0,0,0v.02s0,.02,0,.02v.02s0,0,0,0h0s0,.03,0,.03v.04s.02.02.02.02v.02s.01.02.01.02h0s0,.02,0,.02v.02s.02.03.02.03v.02s.01.02.01.02h0s0,.02,0,.02v.02s.01.02.01.02v.03s.02.02.02.02v.02s0,0,0,0h0s0,.03,0,.03v.02s.01.01.01.01h0s0,.02,0,.02v.02s.02.02.02.02h0s0,.02,0,.02v.02s.02.02.02.02h0s0,.02,0,.02v.02s.02.02.02.02h0s0,.02,0,.02v.02s.02.02.02.02v.02s0,0,0,0v.02s.02.02.02.02v.26c0,.36.19.67.47.85l2.63,1.62c.15.09.33.15.53.15h35.72Z"/>
      <path class="cls-4" d="M51.63,10.3h-1.3c-.55,0-1,.45-1,1v3.24c0,.36.19.67.47.85l2.63,1.62c.15.09.33.15.53.15h2.58s.07,0,.11,0c.02.17.04.33.05.47.04.43.07.86.08,1.3.01.36.02.83.02,1.33v25.72c.09-.01.18-.02.28-.02h1.97v-.04s0-.02,0-.02h0s0-.02,0-.02v-.02s0,0,0,0v-.02s0-.06,0-.06h0v-.04s0,0,0,0v-.02s0-.02,0-.02h0v-.04s0,0,0,0h0s0-.03,0-.03h0v-.04s0-.01,0-.01h0s0-.03,0-.03v-.02s0,0,0,0v-.02s0-.02,0-.02h0s0-.02,0-.02v-.02s0-.02,0-.02v-.02h0v-.04s0,0,0,0v-.04h0v-.04s0,0,0,0h0s0-.03,0-.03h0v-.04h0v-.06s0,0,0,0v-.04s0,0,0,0v-.04s0-.02,0-.02v-.02h0s0-.02,0-.02v-.02h0v-.04h0v-.04h0v-.04h0v-.04s0-.01,0-.01h0v-.04h0v-.04h0V15.63c0-.43,0-.86-.02-1.29v-.02s0-.01,0-.01h-2.52c-.19,0-.37-.05-.53-.15l-2.63-1.62c-.28-.18-.47-.49-.47-.85v-.61h0s0-.02,0-.02h0s0-.02,0-.02h0s0-.02,0-.02h0s0-.02,0-.02h0s0-.02,0-.02h0s0-.02,0-.02h0s0-.01,0-.01h0s0-.02,0-.02h0s0-.02,0-.02h0s0-.02,0-.02h0s0-.02,0-.02h0s0-.02,0-.02h0s0-.01,0-.01h0s0-.02,0-.02h0s0-.02,0-.02h0s0-.02,0-.02h0s0-.02,0-.02h0s0-.02,0-.02h0s0-.02,0-.02h0s0-.02,0-.02h0s0-.01,0-.01h0s0-.02,0-.02h0s0-.02,0-.02h0s0-.01,0-.01h0s0-.02,0-.02h0s0-.02,0-.02h0s0-.01,0-.01h0s0-.02,0-.02h0s0-.02,0-.02h0s0-.01,0-.01h0s0-.02,0-.02h0s0-.03,0-.03h0s0-.01,0-.01h0s0-.03,0-.03h0s0-.03,0-.03h0s0-.03,0-.03h0s0-.03,0-.03h0s0-.01,0-.01ZM74.27,60.71c.55,0,1-.45,1-1v-1.86h-19.74c-.19,0-.37-.05-.53-.15l-2.63-1.62c-.28-.18-.47-.49-.47-.85v-.33h0s0-.02,0-.02h0s0-.03,0-.03v-.02s-.01-.01-.01-.01h0s0-.02,0-.02v-.02s-.02-.02-.02-.02h0s0-.02,0-.02v-.02s-.01-.02-.01-.02h0s0-.02,0-.02v-.02s-.01-.02-.01-.02v-.02s-.01-.02-.01-.02v-.02s-.01-.02-.01-.02v-.02s0,0,0,0v-.02s-.01-.02-.01-.02v-.02s-.01,0-.01,0h0s0-.02,0-.02v-.02s-.02-.03-.02-.03v-.02s-.01-.02-.01-.02h0s0-.02,0-.02v-.02s-.01-.02-.01-.02v-.02s0,0,0,0h0s0-.03,0-.03v-.02s-.01-.03-.01-.03v-.02s0-.02,0-.02h0s0-.02,0-.02v-.02s-.01-.03-.01-.03h0s0-.02,0-.02v-.02s0-.02,0-.02h0s0-.02,0-.02v-.02s0-.02,0-.02v-.02s0,0,0,0v-.02s0-.02,0-.02v-.02s0-.01,0-.01h0s0-.02,0-.02v-.02s0-.02,0-.02h0s0-.02,0-.02v-.02s0-.02,0-.02h0v-.04s0-.02,0-.02h-1.26c-.55,0-1,.45-1,1v3.24c0,.36.19.67.47.85l2.63,1.62c.15.09.33.15.53.15h21.31Z"/>
      <path class="cls-4" d="M205.88,57.86v1.86c0,.55-.45,1-1,1h-17.63c-.19,0-.37-.05-.53-.15l-2.63-1.62c-.28-.18-.47-.49-.47-.85v-3.24c0-.55.45-1,1-1h1.37s0,.03,0,.03h0s0,.01,0,.01h0s0,.03,0,.03h0s0,.03,0,.03h0s0,.01,0,.01h0s0,.03,0,.03h0s0,.02,0,.02h0s0,.02,0,.02h0s0,.03,0,.03h0s0,.02,0,.02h0s0,.02,0,.02h0s0,.03,0,.03h0s0,.01,0,.01h0s0,.03,0,.03h0s0,.03,0,.03h0s0,.01,0,.01h0s0,.03,0,.03h0s0,.03,0,.03h0s0,.01,0,.01h0s0,.03,0,.03h0s0,.02,0,.02h0s0,.02,0,.02h0s0,.03,0,.03h0s0,.01,0,.01h0s0,.03,0,.03h0s0,.03,0,.03h0s0,.01,0,.01h0s0,.03,0,.03h0s0,.02,0,.02h0s0,.01,0,.01h0s0,.03,0,.03h0s0,.02,0,.02h0s0,.02,0,.02h0s0,.03,0,.03h0s0,.01,0,.01h0s0,.02,0,.02h0s0,.02,0,.02h0s0,.01,0,.01h0s0,.02,0,.02v.53c0,.36.19.67.47.85l2.63,1.62c.15.09.33.15.53.15h16.06ZM230.48,58.6v1.86c0,.55-.45,1-1,1h-2.65c-.19,0-.38-.05-.53-.15l-2.63-1.62c-.12-.07-.22-.17-.3-.28l-17.18-20.82v-5.97l19.75,23.93c.08.11.18.21.3.28l2.63,1.62c.15.1.33.15.53.15h1.08ZM221.02,23.87v-3.78c0-.52-.02-1.81-.17-2.84,0-.04-.01-.07-.02-.11h-2.58c-.19,0-.37-.05-.53-.15l-2.63-1.62c-.28-.18-.47-.49-.47-.85v-3.24c0-.55.45-1,1-1h1.42s0,0,0,0h0s0,.02,0,.02h0s0,.02,0,.02h0s0,.02,0,.02h0s0,0,0,0h0s0,.02,0,.02h0s0,.02,0,.02h0s0,.02,0,.02h0s0,0,0,0h0s0,.01,0,.01h0s0,.02,0,.02h0s0,.02,0,.02h0s0,.01,0,.01h0s0,.01,0,.01h0s0,.02,0,.02h0s0,.02,0,.02h0s0,.02,0,.02h0s0,0,0,0h0s0,.02,0,.02h0s0,.02,0,.02h0s0,.02,0,.02h0s0,0,0,0h0s0,.02,0,.02h0s0,.02,0,.02h0s0,.02,0,.02h0s0,.02,0,.02h0s0,.02,0,.02h0s0,.02,0,.02h0s0,.02,0,.02h0s0,0,0,0h0s0,.02,0,.02h0s0,.02,0,.02h0s0,.02,0,.02h0s0,0,0,0h0s0,.02,0,.02h0s0,.02,0,.02v.87c0,.36.19.67.47.85l2.63,1.62c.15.1.33.15.53.15h2.57s0,.01,0,.01h0s0,.03,0,.03v.02s0,0,0,0v.02s0,.02,0,.02h0s0,.02,0,.02v.02s0,0,0,0h0s0,.03,0,.03h0s0,.02,0,.02v.02s0,.02,0,.02h0s0,.02,0,.02v.02s0,0,0,0v.02s0,.02,0,.02h0v.04s0,.01,0,.01h0s0,.02,0,.02v.02s0,0,0,0v.02s0,.02,0,.02h0v.04s0,0,0,0h0s0,.03,0,.03h0s0,.02,0,.02v.04s0,0,0,0v.02s0,.02,0,.02h0v.04s0,.01,0,.01h0v.04s0,0,0,0v.04s0,0,0,0v.03s0,0,0,0h0s0,.03,0,.03h0v.04s0,.02,0,.02h0v.04s0,0,0,0v.03h0v.04s0,.01,0,.01h0v.04h0v.04s0,0,0,0h0v.03h0v.04h0v11.39l-2.39-2.93ZM182.66,10.3h.9s0,0,0,0h0s0,.02,0,.02h0s0,.02,0,.02h0s0,.02,0,.02h0s0,.01,0,.01h0s0,.02,0,.02h0s0,.02,0,.02h0s0,.01,0,.01h0s0,.01,0,.01h0s0,.02,0,.02h0s0,.02,0,.02h0s0,.02,0,.02h0s0,.02,0,.02h0s0,.02,0,.02h0s0,.02,0,.02h0s0,.01,0,.01h0s0,.02,0,.02h0s0,.02,0,.02h0s0,.01,0,.01h0s0,.01,0,.01h0s0,.02,0,.02h0s0,.02,0,.02h0s0,.02,0,.02h0s0,.02,0,.02h0s0,.02,0,.02h0s0,.01,0,.01h0s0,.01,0,.01h0s0,.02,0,.02h0s0,.02,0,.02h0s0,.01,0,.01h0s0,.02,0,.02h0s0,.02,0,.02h0s0,.02,0,.02h0s0,0,0,0h0s0,.02,0,.02h0s0,.02,0,.02v.81c0,.36.19.67.47.85l2.63,1.62c.15.1.33.15.53.15h.98c.37,0,.83,0,1.25.03.4.03.78.08,1.07.17.22.07.44.14.66.23.1.1.19.2.29.29.19.2.4.42.62.66l.16.18v29.02h0v.03h0v.03h0v.03h0s0,.02,0,.02v.03h0v.03h0s0,.02,0,.02v.02h0v.03h0s0,.02,0,.02v.03h0v.03h0v.03s0,0,0,0h0s0,.03,0,.03h0v.03s0,.02,0,.02h0v.03s0,.01,0,.01h0s0,.02,0,.02h0v.03s0,0,0,0h0v.03h0v.02h0v.03s0,.01,0,.01h0v.02h0v.03s0,0,0,0h0s0,.03,0,.03h0s0,.02,0,.02h0v.03s0,.01,0,.01h0s0,.02,0,.02h0s0,.02,0,.02v.02s0,0,0,0h0s0,.03,0,.03v.02s0,.01,0,.01h0s0,.02,0,.02h0v.03s0,0,0,0h0s0,.03,0,.03h0s0,.02,0,.02v.02s0,.02,0,.02h-1.9c-.15,0-.3.01-.45.04v-27.06c-.11-.13-.23-.26-.36-.4-.22-.24-.42-.46-.62-.66-.09-.1-.19-.19-.29-.29-.22-.08-.44-.16-.66-.23-.28-.09-.67-.14-1.07-.17-.42-.03-.88-.03-1.25-.03h-.98c-.19,0-.37-.05-.53-.15l-1.29-.79c-.08-1.96-.2-3.91-.32-5.91Z"/>
      <path class="cls-4" d="M322.56,19.37c.47.57.81,1.2,1.06,1.87.31.86.46,1.8.48,2.8h.04s.04-.02.04-.02l.08-.02h.03s.01-.01.01-.01h.04s.04-.03.04-.03h0s.04-.01.04-.01h.04s.02-.02.02-.02h.02s.04-.02.04-.02h.03s0-.01,0-.01h.04s.14-.06.14-.06h.01s.04-.02.04-.02l.08-.03h.04s.02-.02.02-.02h.02s.08-.04.08-.04l.04-.02.04-.02h0s.03-.02.03-.02l.12-.05h.03s0-.02,0-.02l.04-.02.04-.02h.01s.03-.02.03-.02l.04-.02h.03s.01-.02.01-.02l.04-.02.04-.02h0s.04-.02.04-.02l.04-.02.04-.02.04-.02h.03s0-.02,0-.02l.04-.02.04-.02h0s.03-.02.03-.02l.04-.02h.02s.02-.02.02-.02l.04-.02.04-.02h0s.04-.02.04-.02l.04-.02h.01s.02-.02.02-.02l.04-.02h.03s.01-.02.01-.02l.04-.02.04-.02h0s.03-.02.03-.02l.04-.02h.02s.08-.06.08-.06l.04-.02.04-.02c.09-.51.14-1.04.14-1.61,0-1.07-.14-2.09-.48-3-.32-.88-.82-1.69-1.54-2.4-.66-.22-1.36-.36-2.09-.42v3.81ZM298.82,53.86h-1.45c-.55,0-1,.45-1,1v3.24c0,.36.19.67.47.85l2.63,1.62c.15.09.33.15.53.15h21.24c.55,0,1-.45,1-1v-1.86h-19.67c-.19,0-.37-.05-.53-.15l-2.63-1.62c-.28-.18-.47-.49-.47-.85v-.76h0s0-.02,0-.02h0s0-.02,0-.02h0s0-.01,0-.01h0s0-.02,0-.02h0s0-.02,0-.02h0s0-.02,0-.02h0s0-.02,0-.02h0s0-.02,0-.02h0s0-.01,0-.01h0s0-.02,0-.02h0s0-.02,0-.02h0s0-.02,0-.02h0s0,0,0,0h0s0-.02,0-.02h0s0-.02,0-.02h0s0-.02,0-.02h0s0-.01,0-.01h0s0-.02,0-.02h0s0-.02,0-.02h0s0-.02,0-.02h0s0-.02,0-.02h0s0-.02,0-.02h0s0-.01,0-.01h0s0-.02,0-.02h0s0-.02,0-.02h0s0-.02,0-.02h0s0,0,0,0h0s0-.02,0-.02h0s0-.02,0-.02h0s0-.02,0-.02h0s0-.01,0-.01h0s0-.02,0-.02h0s0-.02,0-.02h0s0-.01,0-.01h0s0-.02,0-.02h0s0-.02,0-.02ZM298.48,16.4h.02s-.06-.11-.06-.11l.05.11ZM296.37,14.16v.37c0,.36.19.67.47.85l.19.12c-.21-.45-.43-.9-.66-1.34ZM298.85,10.3h-1.48c-.55,0-1,.44-1,.99,1.41,1.8,2.61,3.76,3.58,5.86h.05s2.64,0,2.64,0c0,.06.02.12.03.19.16,1.06.17,2.39.17,2.91v25.75c.15-.03.31-.04.46-.04h2.07s0-.02,0-.02v-.02s0,0,0,0v-.02s0-.01,0-.01h0s0-.03,0-.03h0s0-.02,0-.02v-.02s0,0,0,0v-.02s0,0,0,0h0s0-.03,0-.03h0s0-.02,0-.02h0v-.04s0,0,0,0v-.02s0-.02,0-.02h0s0-.02,0-.02h0s0-.02,0-.02v-.02s0,0,0,0v-.02s0-.01,0-.01h0s0-.03,0-.03h0s0-.02,0-.02h0v-.04s0,0,0,0h0s0-.03,0-.03h0s0-.02,0-.02h0v-.04s0,0,0,0v-.02s0-.01,0-.01h0v-.03h0v-.04s0,0,0,0v-.02s0,0,0,0h0s0-.03,0-.03h0v-.02h0v-.04s0,0,0,0v-.03s0,0,0,0v-.02h0s0-.02,0-.02v-.02h0v-.02h0v-.04h0s0-.02,0-.02h0v-.04h0v-.04s0,0,0,0v-.02h0v-.04h0v-.02h0v-.04h0v-.04h0v-.02h0v-27.96c-.01-.64-.06-1.53-.17-2.28,0-.06-.02-.13-.03-.19h-2.64c-.19,0-.37-.05-.53-.15l-2.63-1.62c-.28-.18-.47-.49-.47-.85v-1.04h0s0-.01,0-.01h0s0-.01,0-.01h0s0-.01,0-.01h0s0,0,0,0h0s0-.01,0-.01h0s0-.01,0-.01h0s0,0,0,0h0s0-.01,0-.01h0s0-.01,0-.01h0s0,0,0,0h0s0,0,0,0h0s0-.01,0-.01h0s0-.01,0-.01h0s0-.01,0-.01h0s0-.01,0-.01h0s0,0,0,0h0s0,0,0,0h0s0,0,0,0h0s0-.01,0-.01h0s0-.01,0-.01h0s0-.01,0-.01h0s0,0,0,0h0s0,0,0,0h0s0-.01,0-.01h0s0-.01,0-.01h0s0-.01,0-.01h0s0-.01,0-.01h0s0-.01,0-.01h0s0,0,0,0h0s0-.01,0-.01h0s0-.01,0-.01h0s0-.01,0-.01h0s0-.01,0-.01h0s0-.01,0-.01h0s0,0,0,0ZM327.9,55.99l1.9,2.61c.08.14.2.25.33.34l2.63,1.62c.15.09.33.15.53.15h13.57c.55,0,1-.45,1-1v-1.86h-12.01c-.19,0-.38-.05-.53-.15l-2.63-1.62c-.14-.08-.25-.2-.33-.34l-2.95-4.06v2.02c0,1.03-.62,1.91-1.51,2.28ZM325.27,45.99l-2.45-3.37v2.06c0,.42,0,.85.03,1.28h2.07c.12,0,.24,0,.35.02Z"/>
      <path class="cls-4" d="M176.25,57.86l-.75,2.18c-.14.41-.53.67-.95.67h-36.43c-.19,0-.37-.05-.53-.15l-2.63-1.62c-.28-.18-.47-.49-.47-.85v-3.24c0-.55.45-1,1-1h1.33v.02s0,.02,0,.02h0s0,.02,0,.02v.02s0,.02,0,.02v.02s0,0,0,0h0s0,.02,0,.02v.02s0,.02,0,.02h0s0,.02,0,.02v.02s0,.02,0,.02v.02s0,.01,0,.01h0s0,.02,0,.02v.02s0,.02,0,.02h0s0,.01,0,.01v.02s0,.02,0,.02h0s0,.03,0,.03h0s0,.03,0,.03v.02s0,.01,0,.01h0s0,.01,0,.01h0s0,.03,0,.03h0s0,.02,0,.02h0s0,.03,0,.03h0s0,.03,0,.03h0s0,.01,0,.01h0s0,.03,0,.03h0s0,.02,0,.02h0s0,.02,0,.02h0s0,.03,0,.03h0s0,.01,0,.01h0s0,.03,0,.03h0s0,.02,0,.02h0s0,.02,0,.02h0s0,.03,0,.03h0s0,.01,0,.01h0s0,.03,0,.03h0s0,.02,0,.02h0s0,.02,0,.02h0s0,.03,0,.03h0s0,.01,0,.01h0s0,.03,0,.03h0s0,.03,0,.03h0v.45c0,.36.19.67.47.85l2.63,1.62c.15.09.33.15.53.15h35.56ZM172.2,42.95h0s-.02.04-.02.04h0s-.02.04-.02.04h0s-.02.04-.02.04h0s-.02.04-.02.04h0s-.03.04-.03.04l-.03.04-.02.02v.02s-.04.04-.04.04l-.03.04h-.01s-.02.04-.02.04l-.03.04-.03.04-.03.04h0s-.03.04-.03.04h0s-.03.04-.03.04l-.03.04-.02.03h0s-.03.05-.03.05l-.03.04v.02s-.03.02-.03.02h-.01s-.02.04-.02.04h0s-.02.04-.02.04h0s-.02.04-.02.04h0s-.03.04-.03.04h0s-.03.04-.03.04h0s-.03.04-.03.04h0s0,0,0,0h-.02s-.02.02-.02.02h-.02s-.05.04-.05.04h-.02s-.02.02-.02.02c-.37.21-.77.37-1.19.46-.2.05-.4.07-.6.1-.25.03-.51.05-.77.07-.42.03-.85.05-1.27.06h-.02s-.02,0-.02,0h-.02s-.02,0-.02,0h-.02s-.02,0-.02,0h-.04s-.02,0-.02,0h-.02s-.02,0-.02,0h-.02s-.02,0-.02,0h-.02s-.02,0-.02,0h0l-2.26-1.39s0,0,0,0h0c-.26-.17-.44-.45-.46-.78l-.11-.77c-.06-.43-.12-.86-.2-1.3-.07-.44-.15-.86-.24-1.26h0c-.05-.21-.1-.47-.14-.6,0-.03-.02-.06-.03-.09-.66-.1-1.34-.12-1.9-.12h-1.27v-2.85h3.84c.41,0,.88.01,1.37.06h0s0,.01,0,.01h0s0,.01,0,.01h0s0,.01,0,.01h0s0,.01,0,.01h0s0,.02,0,.02h0s0,.02,0,.02v.02s0,.02,0,.02v.02s0,0,0,0h0s0,.01,0,.01h0s0,.02,0,.02h0s0,.02,0,.02v.02s0,.01,0,.01h0s0,.02,0,.02h0s0,.02,0,.02v.02s0,0,0,0h0s0,.02,0,.02h0s0,.02,0,.02h0s0,.03,0,.03h0s0,.02,0,.02h0s0,.02,0,.02h0s0,.02,0,.02h0s0,.02,0,.02v.02s0,.02,0,.02v.02s0,0,0,0h0s0,.01,0,.01h0s0,.03,0,.03v.02s0,.02,0,.02h0s0,.02,0,.02h0s0,.01,0,.01h0s0,.01,0,.01h0s0,.02,0,.02h0s0,.02,0,.02v.02s0,.02,0,.02v.02s0,.02,0,.02v.02s0,.02,0,.02h0s0,.02,0,.02h0s0,.02,0,.02h0s0,.01,0,.01h0s0,.01,0,.01h0s0,.02,0,.02h0s0,.02,0,.02v.02s0,.02,0,.02h0s0,.02,0,.02v.02s0,.02,0,.02h0s0,.02,0,.02v.02s0,0,0,0h0c.07.43.13.85.19,1.27l.11.79v.05s0,.01,0,.01v.04s0,.03,0,.03v.02s.01.04.01.04h0s.01.06.01.06h0s.01.05.01.05h0s0,.05,0,.05v.03s.01.02.01.02v.04s.01,0,.01,0v.05s.02,0,.02,0v.04s.02.02.02.02v.03s.02.03.02.03v.02s.02.04.02.04h0s.02.05.02.05h0s.02.05.02.05v.02s.02.03.02.03v.03s.02.02.02.02l.02.04h0s.03.06.03.06l.02.04v.02s.02.03.02.03l.02.03h0s.02.05.02.05h0s.03.04.03.04h0s.02.04.02.04v.02s.05.05.05.05h0s.03.05.03.05h0s.03.04.03.04h0s.02.04.02.04l.02.02.02.02.02.03h0s.03.05.03.05h0s.04.05.04.05l.02.03.02.02.02.02.03.03h0s.04.04.04.04h0s.03.03.03.03h.01s.05.05.05.05h.02s.03.04.03.04h0s.04.04.04.04h0s.04.03.04.03h.01s.03.03.03.03l.02.02.05.04h0s.04.03.04.03h0s.05.04.05.04l.03.02.03.02.05.03h0s.04.03.04.03h0s0,0,0,0h0s0,0,0,0h0s0,0,0,0h0s0,0,0,0h0s0,0,0,0h0s0,0,0,0h0s0,0,0,0h0s0,0,0,0h0s0,0,0,0h0s0,0,0,0h0s0,0,0,0h0s0,0,0,0h0s0,0,0,0h0s0,0,0,0h0s0,0,0,0h0s0,0,0,0h0s0,0,0,0h0s0,0,0,0l.05.02h.01s0,0,0,0h0s0,0,0,0h0s0,0,0,0h0s0,0,0,0h0s0,0,0,0h0s0,0,0,0h0s0,0,0,0h0s0,0,0,0h0s0,0,0,0h0s0,0,0,0h0s0,0,0,0h0s0,0,0,0h0s0,0,0,0h0s0,0,0,0h0s0,0,0,0h0s0,0,0,0h0s0,0,0,0h0s0,0,0,0l.05.02h0s0,0,0,0h0l1.97,1.22c.15.09.33.15.53.15h1.56v.65-.65l-.02.68ZM166.4,18.36c-.76-.05-1.57-.05-2.11-.05h-3.71v-2.85h6.28c.55,0,1.36,0,2.12.05.21.01.42.03.61.05h0s0,.01,0,.01h0s0,0,0,0h0s0,.02,0,.02h0s0,0,0,0h0s0,.02,0,.02h0s0,.02,0,.02h0s0,0,0,0h0s0,.01,0,.01h0s0,.01,0,.01h0s0,.02,0,.02h0s0,.01,0,.01h0s0,.02,0,.02h0s0,0,0,0h0s0,0,0,0h0s0,0,0,0h0s0,.02,0,.02h0s0,.01,0,.01h-.02s0,0,0,0h-.01s-.02,0-.02,0h-.02s-.02,0-.02,0h0s-.02,0-.02,0h-.02s-.02,0-.02,0h0s-.01,0-.01,0h-.02s-.02,0-.02,0h-.02s0,0,0,0h-.02s-.02,0-.02,0h-.02s0,0,0,0h-.02s-.02,0-.02,0h-.02s-.02,0-.02,0h0s-.02,0-.02,0h-.02s-.02,0-.02,0h0s-.02,0-.02,0h-.02s-.02,0-.02,0h-.02s0,0,0,0h-.02s-.02,0-.02,0h-.02s0,0,0,0h-.02s-.02,0-.02,0h-.02s-.01,0-.01,0h0s-.02,0-.02,0h-.02s-.02,0-.02,0h-.02s-.02,0-.02,0h-.02s-.01,0-.01,0h0s-.02,0-.02,0h-.02s-.02,0-.02,0h-.02s-.02,0-.02,0h-.02s-.01,0-.01,0h0s-.02,0-.02,0h-.02s-.02,0-.02,0h-.02s-.02,0-.02,0h-.02s0,0,0,0h0s-.02,0-.02,0h-.03s0,0,0,0h-.02s-.02,0-.02,0h-.05s-.02,0-.02,0h-.02v.34h0s0,.04,0,.04v.02h0s0,.04,0,.04h0s0,.03,0,.03v.03s0,0,0,0v.05s0,0,0,0v.03s0,.02,0,.02h0s0,.04,0,.04v.02s0,.01,0,.01v.03s0,0,0,0v.02s0,.03,0,.03h0s0,.03,0,.03v.03s0,0,0,0v.03s0,.02,0,.02h0s0,.04,0,.04h0s0,.03,0,.03v.03s0,0,0,0v.02s0,.03,0,.03h0s0,.05,0,.05h0s0,.03,0,.03v.02s0,0,0,0v.03s0,.01,0,.01v.02s0,.03,0,.03h0s0,.03,0,.03v.03s0,0,0,0v.03s0,.02,0,.02h0s0,.03,0,.03v.02s0,.01,0,.01v.03s0,.01,0,.01v.02s0,.03,0,.03h0s0,.03,0,.03v.03s0,0,0,0v.05s0,0,0,0v.03s0,.02,0,.02h0s0,.04,0,.04h0s0,.03,0,.03v.03s0,0,0,0v.02s0,.03,0,.03h0s0,.03,0,.03v.02s0,0,0,0v.03s0,.02,0,.02h0s0,.04,0,.04h0s0,.03,0,.03v.03s0,0,0,0v.02s0,.03,0,.03h0s0,.03,0,.03v.02s0,0,0,0v.03s-.01,0-.01,0h-.02s-.03,0-.03,0h-.02s0,0,0,0h-.03s-.03,0-.03,0h0s-.03,0-.03,0h-.03s-.02,0-.02,0h-.01s-.03,0-.03,0h-.03s0,0,0,0h-.03s-.03,0-.03,0h-.02s-.01,0-.01,0h-.03s-.03,0-.03,0h-.03s-.03,0-.03,0h-.01s-.02,0-.02,0h-.03s-.03,0-.03,0h-.03s-.03,0-.03,0h-.01s-.02,0-.02,0h-.03s-.03,0-.03,0h0s-.03,0-.03,0h-.03s0,0,0,0h-.02s-.03,0-.03,0h-.02s0,0,0,0h-.03s-.03,0-.03,0h0s-.03,0-.03,0h-.03s-.02,0-.02,0h-.01s-.03,0-.03,0h-.03s0,0,0,0h-.03s-.03,0-.03,0h-.01s-.01,0-.01,0h-.03s-.03,0-.03,0h0s-.03,0-.03,0h-.03s-.01,0-.01,0h-.02s-.03,0-.03,0h-.02s0,0,0,0h-.03s-.03,0-.03,0h0s-.02,0-.02,0h-.03s-.02,0-.02,0h0s-.03,0-.03,0h-.02s0,0,0,0h-.02s-.02,0-.02,0h-.02s0,0,0,0h-.02s-.02,0-.02,0h-.02s-.02,0-.02,0h-.02s-.02,0-.02,0h-.02v.29h0v.02h0v.02h0v.02h0s0,.02,0,.02h0v.02h0v.02h0s0,.02,0,.02h0v.02h0s0,.02,0,.02h0v.02h0v.02h0s0,.02,0,.02h0v.02h0s0,.02,0,.02h0s0,.02,0,.02h0v.02h0s0,.01,0,.01h0s0,.02,0,.02h0s0,.02,0,.02h0s0,.01,0,.01h0s0,.01,0,.01h0s0,.01,0,.01h0ZM140.96,45.99v-25.87c0-.55,0-1.11-.03-1.6-.02-.46-.06-.92-.13-1.36-.03,0-.07,0-.1,0h-2.58c-.19,0-.37-.05-.53-.15l-1.08-.66c-.11-.19-.22-.38-.33-.57-.52-.87-1.08-1.69-1.7-2.48v-1.99c0-.55.45-1,1-1h1.36s0,.01,0,.01h0s0,.02,0,.02h0s0,.02,0,.02h0s0,.02,0,.02h0s0,.02,0,.02h0s0,.02,0,.02h0s0,.01,0,.01h0s0,.02,0,.02h0s0,.02,0,.02h0s0,.02,0,.02h0s0,.01,0,.01h0s0,.02,0,.02h0s0,.02,0,.02h0s0,.01,0,.01h0s0,.02,0,.02h0s0,.02,0,.02h0s0,.01,0,.01h0s0,.02,0,.02h0s0,.02,0,.02h0s0,.02,0,.02h0s0,.01,0,.01h0s0,.02,0,.02h0s0,.02,0,.02h0s0,0,0,0h0s0,.02,0,.02h0s0,.02,0,.02h0s0,.01,0,.01h0s0,.01,0,.01h0s0,.02,0,.02h0s0,.02,0,.02h0s0,0,0,0h0s0,.02,0,.02h0s0,.02,0,.02h0s0,.01,0,.01h0s0,.02,0,.02h0s0,.02,0,.02h0s0,.02,0,.02h0v.74c0,.36.19.67.47.85l2.63,1.62c.15.1.33.15.53.15h2.59v.04s0,0,0,0v.02s0,0,0,0h0v.02h0s0,.02,0,.02h0s0,.02,0,.02h0s0,.02,0,.02h0v.02h0v.04s0,0,0,0v.02s0,0,0,0h0s0,.02,0,.02h0s0,.02,0,.02h0s0,.02,0,.02h0s0,.02,0,.02h0v.03s0,0,0,0v.02s0,0,0,0v.02s0,0,0,0h0s0,.02,0,.02h0s0,.02,0,.02v.02h0v.02h0v.03s0,0,0,0v.02s0,0,0,0v.02h0s0,.02,0,.02h0v.04s0,0,0,0v.02h0v.02h0v.04h0s0,.02,0,.02h0v.02h0v.02h0v.04h0v.02h0s0,.02,0,.02h0v.04h0v.02h0v.02h0v.03h0v.02h0v.02h0v.02h0v.04s0,0,0,0v.02h0v.02h0v.03h0v.02h0v.02h0v.02h0v29.28c0,.34,0,.68,0,1.02v.03s0,.02,0,.02v.02s0,.02,0,.02v.02s0,.02,0,.02v.02s0,.02,0,.02v.02s0,.02,0,.02v.02s0,.02,0,.02v.02s0,0,0,0h-1.98c-.12,0-.23,0-.34.02Z"/>
      <path class="cls-4" d="M107.09,18.43c1.81.13,3.51.5,5.07,1.14.22.09.44.19.65.29.73.58,1.43,1.25,2.08,2.01,1.53,1.81,2.57,3.84,3.23,6,.66,2.19.94,4.52.94,6.9s-.28,4.67-.95,6.82c-.09.28-.18.56-.28.84h0s.13-.17.13-.17l.12-.15h.01s.11-.16.11-.16v-.02s.13-.17.13-.17l.1-.15.02-.02.12-.17.11-.17.11-.17.19-.3h0s.02-.04.02-.04l.08-.14.02-.04.1-.17.1-.18.1-.18.07-.13h0s.02-.05.02-.05l.05-.1v-.03s.04-.05.04-.05l.09-.18.09-.18.08-.18.08-.18.08-.18.08-.18.08-.18.07-.18.04-.11.03-.08.03-.09v-.03s.01,0,.01,0l.06-.16h0s.03-.1.03-.1v-.04s.13-.33.13-.33l.06-.19.06-.19.06-.19.05-.19.05-.19.05-.19.05-.19.05-.19.04-.19.04-.2h0s.07-.35.07-.35v-.04s.04-.2.04-.2l.03-.2.03-.2v-.06s.03-.14.03-.14v-.05s.03-.15.03-.15l.03-.2.02-.2v-.04s.02-.16.02-.16v-.04s.01-.07.01-.07l.03-.29.02-.2v-.03s.02-.17.02-.17v-.03s.01-.17.01-.17v-.2s.02-.2.02-.2v-.02s.01-.18.01-.18v-.02s0-.19,0-.19v-.2s.01-.2.01-.2h0s0-.21,0-.21h0s0-.21,0-.21h0s0-.21,0-.21h0v-.02h0v-.02h0v-.02h0v-.02h0v-.02h0v-.02h0v-.02h0v-.02h0v-.02h0s0-.01,0-.01h0v-.02h0v-.02h0v-.02h0v-.02h0v-.02h0v-.02h0v-.02h0s0-.02,0-.02h0v-.02h0v-.02h0s0-.02,0-.02h0v-.02h0v-.02h0v-.02h0v-.02h0s0-.02,0-.02h0s0-.02,0-.02h0s0-.02,0-.02h0s0-.02,0-.02h0v-.02h0v-.02h0v-.02h0c-.12-1.65-.4-3.26-.86-4.79-.65-2.16-1.69-4.19-3.23-6-.65-.76-1.34-1.43-2.08-2.01-.22-.1-.43-.2-.65-.29-2.02-.83-4.27-1.2-6.68-1.2-.32,0-.64,0-.96.02v2.89ZM87.71,45.98v-25.73c0-.54-.02-1.85-.18-2.9-.01-.07-.02-.13-.03-.2h-2.64c-.19,0-.38-.05-.53-.15l-2.63-1.62c-.28-.18-.47-.49-.47-.85v-2.98c.3-.32.51-.72.61-1.17.12-.05.25-.08.4-.08h1.32s0,.01,0,.01h0s0,.02,0,.02h0s0,.02,0,.02h0s0,.01,0,.01h0s0,.02,0,.02h0s0,.02,0,.02h0s0,.01,0,.01h0s0,.02,0,.02h0s0,.02,0,.02h0s0,.01,0,.01h0s0,.02,0,.02h0s0,.02,0,.02h0s0,.01,0,.01h0s0,.02,0,.02h0s0,.02,0,.02h0s0,.01,0,.01h0s0,.02,0,.02h0s0,.02,0,.02h0s0,.01,0,.01h0s0,.02,0,.02h0s0,.02,0,.02h0s0,.02,0,.02h0s0,.02,0,.02h0s0,.02,0,.02h0s0,.01,0,.01h0s0,.02,0,.02h0s0,.02,0,.02h0s0,.01,0,.01h0s0,.02,0,.02h0s0,.02,0,.02h0s0,.01,0,.01h0s0,.02,0,.02h0s0,.02,0,.02h0s0,.01,0,.01h0s0,.02,0,.02h0s0,.02,0,.02h0s0,.01,0,.01h0s0,.02,0,.02v.66c0,.36.19.67.47.85l2.63,1.62c.15.1.33.15.53.15h2.55v.08s0,.01,0,.01h0s0,.03,0,.03v.02s0,0,0,0v.1s0,.02,0,.02h0s0,.13,0,.13v.04s0,0,0,0v.04s0,0,0,0v.04h0v.04h0v.09s0,.02,0,.02v.07s0,.01,0,.01v.02h0v.12s0,.01,0,.01h0v.03h0v.04h0v.04h0v.04h0v.06h0v.04h0v.04h0v.04h0v.04h0v29.13h0v.04h0v.04h0v.02h0s0,.02,0,.02v.02h0v.02h0v.04h0s0,.02,0,.02v.02h0v.02h0v.04s0,0,0,0v.02h0s0,.02,0,.02v.02h0v.02h0v.04h0v.04h0s0,.02,0,.02h0s0,.02,0,.02v.02h0s0,.02,0,.02h0s0,.02,0,.02v.02h0v.04s0,0,0,0v.02s0,0,0,0h0v.03h0v.02h0v.04s0,0,0,0h0s0,.03,0,.03h0s0,.02,0,.02h0v.04s0,0,0,0v.02s0,.01,0,.01h0s0,.03,0,.03h0s0,.02,0,.02v.02s0,0,0,0v.02s0,0,0,0h0s0,.03,0,.03h0s0,.02,0,.02h0v.04s0,0,0,0v.02s0,.02,0,.02h0s0,.02,0,.02h0s0,.02,0,.02v.02s0,.02,0,.02h0s0,.02,0,.02v.02s0,0,0,0v.02s0,.02,0,.02h0s-1.96,0-1.96,0c-.1,0-.2,0-.3.02ZM127.37,52.61c-.13.15-.26.3-.39.44-2.72,2.98-6.08,4.9-9.72,6.08-3.6,1.16-7.47,1.58-11.28,1.58h-21.11c-.19,0-.38-.05-.53-.15l-2.63-1.62c-.28-.18-.47-.49-.47-.85v-2.7c.36-.39.6-.9.65-1.47.11-.04.23-.06.35-.06h1.29v.02s0,.02,0,.02h0s0,.02,0,.02v.02s0,.02,0,.02v.02s0,0,0,0v.02s0,.02,0,.02v.02s0,.01,0,.01h0s0,.02,0,.02v.02s0,.02,0,.02h0s0,.02,0,.02v.02s0,.02,0,.02v.02s0,0,0,0h0s0,.03,0,.03v.02s0,.02,0,.02h0s0,.02,0,.02v.02s0,.02,0,.02h0s0,.02,0,.02v.02s0,.02,0,.02v.02s0,0,0,0h0s0,.02,0,.02v.02s0,.02,0,.02h0s0,.02,0,.02v.02s0,.02,0,.02v.02s0,0,0,0v.02s0,.02,0,.02v.02s0,.01,0,.01h0s0,.02,0,.02v.02s.01.02.01.02h0s0,.02,0,.02v.02s.01.02.01.02v.02s0,0,0,0h0s0,.03,0,.03v.02s.01.01.01.01h0s0,.02,0,.02v.02s.01.01.01.01h0s0,.01,0,.01v.02s.01.01.01.01h0s0,.02,0,.02h0s0,.02,0,.02h0s0,.03,0,.03h0s0,.01,0,.01h0v.39c0,.36.19.67.47.85l2.63,1.62c.15.09.33.15.53.15h21.11c3.81,0,7.67-.43,11.28-1.58,2.16-.69,4.21-1.65,6.1-2.94.49-.23.97-.47,1.44-.73Z"/>
      <path class="cls-1" d="M59.88,47.78c.03-.14.05-.29.06-.41.11-.87.14-1.8.14-2.68V15.63c0-.43,0-.86-.02-1.29-.01-.41-.04-.81-.07-1.22-.07-.76-.61-.77-1.32-.77h-2.58c-1.37,0-2.48-1.11-2.48-2.48v-3.26c0-1.37,1.11-2.48,2.48-2.48h21.33c1.37,0,2.48,1.11,2.48,2.48v3.26c0,1.37-1.11,2.48-2.48,2.48h-2.63c-.33,0-.71.02-1.03.13-.52.17-.41,2.64-.41,3.15v29.07c0,.43,0,.86.02,1.29.01.41.04.81.07,1.22,0,.06.02.28.04.44.03.21.06.19.26.24.33.08.73.09,1.04.09h2.63c1.37,0,2.48,1.11,2.48,2.48v3.26c0,1.37-1.11,2.48-2.48,2.48h-21.33c-1.37,0-2.48-1.11-2.48-2.48v-3.26c0-1.37,1.11-2.48,2.48-2.48h2.58c.33,0,.73-.02,1.05-.13.05-.02.11-.04.17-.07"/>
      <path class="cls-1" d="M105.08,14.02v33.01c1.27.21,2.55.35,3.83.35,4.36,0,7.98-1.4,10.8-4.8,2.84-3.44,3.85-7.65,3.85-12.04s-.97-8.72-3.87-12.15c-2.88-3.41-6.69-4.69-11.06-4.69-1.19,0-2.39.13-3.56.33M91.79,47.77c.08-.3.12-.78.14-1.05.06-.67.08-1.35.08-2.02V15.63c0-.88,0-1.83-.12-2.71-.1-.65-.55-.57-1.2-.57h-2.67c-1.37,0-2.48-1.11-2.48-2.48v-3.26c0-1.37,1.11-2.48,2.48-2.48h19.33c1.35,0,2.71.03,4.06.1,1.37.07,2.74.18,4.1.34,1.08.13,2.16.3,3.22.52,1.1.22,2.19.5,3.25.86,2.55.85,4.92,2.1,7.02,3.79,2.09,1.68,3.82,3.73,5.2,6.03,1.24,2.08,2.16,4.32,2.77,6.66.63,2.45.91,4.96.91,7.49,0,3.36-.49,6.7-1.65,9.86-1.11,3.05-2.79,5.8-4.97,8.21-2.83,3.12-6.38,5.24-10.36,6.53-3.77,1.22-7.79,1.67-11.74,1.67h-21.13c-1.37,0-2.48-1.11-2.48-2.48v-3.26c0-1.37,1.11-2.48,2.48-2.48h2.67c.29,0,.67-.02.95-.12.06-.02.11-.05.15-.08Z"/>
      <path class="cls-1" d="M172.03,17.18c-.08-.36-.17-.71-.26-1.06-.06-.2-.11-.4-.18-.6-.05-.14-.1-.29-.17-.42-.11-.23-.24-.45-.42-.63-.15-.15-.32-.25-.51-.33-.3-.12-.96-.15-1.29-.18-.67-.05-1.34-.05-2-.05h-8.63v10.36h6.19c.65,0,1.31-.02,1.95-.12.21-.03.57-.09.79-.17.15-.2.27-.57.33-.79.17-.62.24-1.28.28-1.92.06-1.1.31-2.15.31-3.26v-.29c1.1,0,3.85.48,3.62-.54M158.56,46.77h7.62c.44,0,.88,0,1.32-.01.42-.01.85-.03,1.27-.06.26-.02.51-.04.77-.07.2-.02.4-.05.6-.1.42-.1.82-.25,1.19-.46.4-.23.75-.51,1.07-.83.72-.72,1.33-1.56,1.88-2.41,1.05-1.61,1.65-1.79-.15-1.79h-3.13c-1.41,0-2.6-1.06-2.75-2.45l-.11-.79c-.06-.42-.12-.84-.19-1.26-.05-.33-.12-.66-.18-.99l-.04-.19c-.14-.63-.07-.66-.75-.84-.7-.19-1.5-.23-2.22-.23h-6.2v12.03c0,.15,0,.3,0,.45ZM176.9,37.95h5.41c1.37,0,2.48,1.11,2.48,2.48,0,.28-.05.57-.15.84l-4.55,13.25c-.34,1-1.29,1.67-2.34,1.67h-36.45c-1.37,0-2.48-1.11-2.48-2.48v-3.26c0-1.37,1.11-2.48,2.48-2.48h2.58c.24,0,.48-.03.71-.09.2-.05.39-.12.57-.21,0,0,0,0,0-.01l.06-.28c.03-.16.03-.39.04-.56v-.09c.02-.33.03-.66.03-.98,0-.34,0-.68,0-1.02V15.49c0-.51,0-1.02-.03-1.53-.02-.46-.06-.92-.14-1.38,0-.03-.01-.07-.02-.1-.02,0-.04-.01-.06-.02-.37-.09-.79-.11-1.17-.11h-2.58c-1.37,0-2.48-1.11-2.48-2.48v-3.26c0-1.37,1.11-2.48,2.48-2.48h36.66c1.35,0,2.44,1.08,2.48,2.41.25,5.03.64,9.49.64,14.39h-4.18v17.01Z"/>
      <path class="cls-1" d="M228.12,55.98l-23.94-29.17v18.06c0,.87.03,1.8.15,2.66.01.08.03.19.05.29.04.02.09.03.11.04.32.09.7.11,1.03.11h2.58c1.37,0,2.48,1.11,2.48,2.48v3.26c0,1.37-1.11,2.48-2.48,2.48h-17.64c-1.37,0-2.48-1.11-2.48-2.48v-3.26c0-1.37,1.11-2.48,2.48-2.48h2.55c.33,0,.73-.02,1.04-.13.03,0,.09-.03.14-.06.07-.29.1-.7.12-.95.06-.65.08-1.32.08-1.98V15.14c0-.34,0-.27-.24-.53-.11-.12-.22-.24-.33-.35-.13-.14-.26-.27-.4-.4-.1-.09-.2-.18-.3-.26h-.01s-.05-.05-.05-.05h0c-.28-.24-.61-.42-.94-.58-.4-.19-.82-.35-1.25-.48-.2-.06-.52-.09-.73-.1-.38-.03-.77-.03-1.15-.03h-.98c-1.37,0-2.48-1.11-2.48-2.48v-3.26c0-1.37,1.11-2.48,2.48-2.48h13.72c.77,0,1.49.36,1.96.96,7.12,8.72,14.23,17.45,21.35,26.17.53.65.38.45.38-.34v-15.46c0-.86-.03-1.79-.16-2.64-.03-.21.01-.31-.19-.37-.32-.09-.7-.11-1.03-.11h-2.55c-1.37,0-2.48-1.11-2.48-2.48v-3.26c0-1.37,1.11-2.48,2.48-2.48h17.64c1.37,0,2.48,1.11,2.48,2.48v3.26c0,1.37-1.11,2.48-2.48,2.48h-2.58c-.32,0-.71.02-1.02.12-.02,0-.08.03-.13.05-.07.29-.1.71-.12.96-.06.66-.08,1.32-.08,1.98v38.99c0,1.37-1.11,2.48-2.48,2.48h-2.65c-.77,0-1.49-.36-1.96-.96"/>
      <path class="cls-1" d="M320.55,13.76v12.86c2.11-.12,4.29-.57,6.07-1.67,1.92-1.18,2.68-2.78,2.68-5.01,0-1.76-.43-3.36-1.73-4.61-1.35-1.3-3.07-1.72-4.9-1.72-.7,0-1.41.06-2.12.14M334.43,32.55l6.64,9.07c.39.53.79,1.06,1.2,1.57.4.5.81.99,1.24,1.46.26.29.51.6.76.9.31.37.91,1.16,1.28,1.44,1.41,1.02,2.53,1.06,4.22,1.24,4.4.45,3.2.82,3.2,5.49,0,1.37-1.11,2.48-2.48,2.48h-13.31c-.81,0-1.57-.4-2.03-1.06l-14.34-19.51v9.06c0,.88.03,1.83.16,2.71.02.11.04.26.07.4.05.03.11.05.17.07.28.09.62.11.92.11h2.79c1.37,0,2.48,1.11,2.48,2.48v3.26c0,1.37-1.11,2.48-2.48,2.48h-21.62c-1.37,0-2.48-1.11-2.48-2.48v-3.26c0-1.37,1.11-2.48,2.48-2.48h2.72c.31,0,.71-.02,1-.13.07-.03.13-.06.19-.1.07-.31.11-.76.13-1.03.05-.67.07-1.35.07-2.02V15.63c0-.89-.03-1.84-.16-2.71-.02-.1-.04-.24-.06-.37-.06-.03-.13-.06-.19-.07-.3-.1-.66-.12-.98-.12h-2.72c-1.37,0-2.48-1.11-2.48-2.48v-3.26c0-1.37,1.11-2.48,2.48-2.48h17.71c.92,0,1.83,0,2.75.03.93.02,1.86.06,2.79.13,1.18.08,2.16.25,3.31.49l.12.02c1.87.39,3.69,1.02,5.36,1.96,1.61.9,3.04,2.06,4.24,3.46,1.04,1.2,1.99,2.51,2.7,3.93.79,1.57,1.28,3.26,1.28,5.02,0,3.45-.99,6.65-3.29,9.26-1.6,1.82-3.64,3.15-5.84,4.1Z"/>
      <path class="cls-1" d="M50.16,40.58l-4.17,13.13c-.16.51-.32.94-.5,1.43l-.4,1.05H6.71c-1.37,0-2.48-1.11-2.48-2.48v-3.26c0-1.37,1.11-2.48,2.48-2.48h2.7c.31,0,.69-.02.98-.13.07-.03.13-.06.18-.1.07-.31.11-.78.13-1.05.05-.67.07-1.36.07-2.03V15.63c0-.88-.03-1.82-.16-2.69-.01-.08-.03-.17-.04-.27-.03-.14,0-.13-.15-.18-.02,0-.04-.01-.05-.02-.3-.09-.65-.12-.97-.12h-2.7c-1.37,0-2.48-1.11-2.48-2.48v-3.26c0-1.37,1.11-2.48,2.48-2.48h22.48c1.37,0,2.48,1.11,2.48,2.48v3.27c0,1.37-1.11,2.48-2.48,2.48-.03,0-.07,0-.1,0h-.92c-.95-.02-1.95.01-2.88.2-.23.05-.81.19-1.08.35-.08.38-.11.95-.13,1.28-.04.74-.06,1.48-.06,2.22v28.36c0,.49.01.99.06,1.48,0,.06.01.13.02.2.05,0,.1.02.15.02h6.59c.57,0,1.15,0,1.72-.02.56-.01,1.12-.04,1.67-.08.34-.02.68-.05,1.02-.09.29-.03.58-.08.86-.15.63-.15,1.22-.39,1.77-.73.57-.35,1.07-.79,1.51-1.29.6-.68,1.11-1.53,1.54-2.33.49-.92.92-1.88,1.32-2.85,1.57-3.82,1.44-2.61,6.08-1.6,1.33.29,2.18,1.61,1.89,2.94-.02.1-.05.2-.08.29"/>
      <path class="cls-5" d="M44.58,55.45l.19-.5c.19-.49.34-.92.51-1.43l4.18-13.17h0c.02-.08.04-.14.06-.21.2-.93-.4-1.86-1.33-2.07-3.51-.77-3.98-1.91-5.24,1.15-.41.99-.84,1.97-1.35,2.92-.46.86-.99,1.74-1.64,2.47-.49.55-1.04,1.04-1.67,1.43-.62.38-1.28.65-1.99.82-.31.07-.63.12-.94.16-.35.04-.71.07-1.06.1-.57.04-1.14.07-1.71.08-.58.02-1.16.02-1.74.02h-6.68c-.06-.01-.12-.02-.17-.03l-.57-.09-.06-.57c0-.07-.01-.14-.02-.21-.05-.51-.06-1.03-.06-1.55v-28.36c0-.76.01-1.51.06-2.26.03-.45.05-.94.14-1.39.07-.37.02-.29.34-.48.35-.21.92-.36,1.32-.44.99-.2,2.03-.24,3.03-.23h.93s.01.01.01.01c.02,0,.05,0,.07,0,.96,0,1.74-.78,1.74-1.74v-3.27c0-.96-.78-1.74-1.74-1.74H6.71c-.96,0-1.74.78-1.74,1.74v3.26c0,.96.78,1.74,1.74,1.74h2.7c.39,0,.81.03,1.19.15.45.14.57.15.67.62.03.15.06.3.08.45.14.92.17,1.87.17,2.8v29.04c0,.7-.02,1.4-.08,2.09-.03.38-.06.79-.15,1.16l-.06.24-.19.16c-.12.1-.25.17-.4.23-.38.15-.83.18-1.24.18h-2.7c-.96,0-1.74.78-1.74,1.74v3.26c0,.96.78,1.74,1.74,1.74h37.86Z"/>
      <path class="cls-5" d="M172.03,17.18c-.08-.36-.17-.71-.26-1.06-.06-.2-.11-.4-.18-.6-.05-.14-.1-.29-.17-.42-.11-.23-.24-.45-.42-.63-.15-.15-.32-.25-.51-.33-.3-.12-.96-.15-1.29-.18-.67-.05-1.34-.05-2-.05h-8.63v10.36h6.19c.65,0,1.31-.02,1.95-.12.21-.03.57-.09.79-.17.15-.2.27-.57.33-.79.17-.62.24-1.28.28-1.92.06-1.1.31-2.15.31-3.26v-.29c1.1,0,3.85.48,3.62-.54M158.56,46.77h7.62c.44,0,.88,0,1.32-.01.42-.01.85-.03,1.27-.06.26-.02.51-.04.77-.07.2-.02.4-.05.6-.1.42-.1.82-.25,1.19-.46.4-.23.75-.51,1.07-.83.72-.72,1.33-1.56,1.88-2.41,1.05-1.61,1.65-1.79-.15-1.79h-3.13c-1.41,0-2.6-1.06-2.75-2.45l-.11-.79c-.06-.42-.12-.84-.19-1.26-.05-.33-.12-.66-.18-.99l-.04-.19c-.14-.63-.07-.66-.75-.84-.7-.19-1.5-.23-2.22-.23h-6.2v12.03c0,.15,0,.3,0,.45ZM180.34,20.2c-.04-4.55-.4-9.07-.63-13.61h0s0-.02,0-.02c-.02-.94-.8-1.69-1.74-1.69h-36.66c-.96,0-1.74.78-1.74,1.74v3.26c0,.96.78,1.74,1.74,1.74h2.58c.45,0,.91.03,1.34.13.03,0,.05.01.08.02l.45.12.08.46s.01.08.02.12c.08.48.12.97.15,1.46.03.52.03,1.05.03,1.57v29.24c0,.34,0,.69,0,1.03,0,.33-.01.67-.03,1v.09c-.01.22-.01.45-.05.67l-.06.31v.02s0,.01-.01.02c-.11.38-.04.31-.4.47-.22.1-.46.19-.7.25-.29.08-.59.11-.9.11h-2.58c-.96,0-1.74.78-1.74,1.74v3.26c0,.96.78,1.74,1.74,1.74h36.45c.74,0,1.4-.47,1.65-1.17l4.55-13.26c.07-.19.1-.39.1-.59,0-.96-.78-1.74-1.74-1.74h-6.15v-18.49h4.17Z"/>
      <path class="cls-5" d="M105.08,14.02v33.01c1.27.21,2.55.35,3.83.35,4.36,0,7.98-1.4,10.8-4.8,2.84-3.44,3.85-7.65,3.85-12.04s-.97-8.72-3.87-12.15c-2.88-3.41-6.69-4.69-11.06-4.69-1.19,0-2.39.13-3.56.33M92.26,48.34c-.11.09-.23.15-.36.2-.37.14-.81.17-1.21.17h-2.67c-.96,0-1.74.78-1.74,1.74v3.26c0,.96.78,1.74,1.74,1.74h21.13c3.88,0,7.81-.43,11.52-1.63,3.86-1.25,7.3-3.3,10.04-6.32,2.12-2.33,3.74-5.01,4.82-7.97,1.12-3.08,1.6-6.34,1.6-9.61,0-2.46-.27-4.92-.89-7.3-.59-2.27-1.48-4.45-2.69-6.47-1.33-2.23-3-4.21-5.02-5.84-2.03-1.63-4.32-2.84-6.79-3.67-1.03-.35-2.09-.62-3.16-.84-1.05-.21-2.1-.38-3.16-.51-1.34-.16-2.69-.27-4.04-.34-1.34-.07-2.68-.1-4.02-.1h-19.33c-.96,0-1.74.78-1.74,1.74v3.26c0,.96.78,1.74,1.74,1.74h2.67c.48,0,.96-.04,1.39.25.33.23.49.57.55.96.14.93.13,1.88.13,2.81v29.07c0,.7-.02,1.39-.08,2.09-.03.38-.07.81-.16,1.18l-.06.23-.19.15Z"/>
      <path class="cls-5" d="M60.22,48.44c-.09.05-.18.08-.28.11-.4.13-.86.16-1.28.16h-2.58c-.96,0-1.74.78-1.74,1.74v3.26c0,.96.78,1.74,1.74,1.74h21.33c.96,0,1.74-.78,1.74-1.74v-3.26c0-.96-.78-1.74-1.74-1.74h-2.63c-.48,0-1.03-.03-1.48-.19-.02,0-.03-.01-.05-.02-.47-.18-.38-.08-.46-.57,0-.02,0-.04,0-.06-.03-.2-.05-.4-.07-.6-.04-.42-.06-.84-.08-1.26-.01-.44-.02-.88-.02-1.32V15.63c0-.53-.02-1.04,0-1.57.03-.73.08-2.01.92-2.28.4-.13.84-.16,1.26-.16h2.63c.96,0,1.74-.78,1.74-1.74v-3.26c0-.96-.78-1.74-1.74-1.74h-21.33c-.96,0-1.74.78-1.74,1.74v3.26c0,.96.78,1.74,1.74,1.74h2.58c.52,0,1.06,0,1.49.33.36.27.52.67.57,1.11.04.42.06.84.08,1.26.01.44.02.88.02,1.32v29.07c0,.92-.03,1.86-.14,2.77-.02.15-.04.3-.07.45-.08.41-.01.33-.39.52"/>
      <path class="cls-5" d="M320.55,13.76v12.86c2.11-.12,4.29-.57,6.07-1.67,1.92-1.18,2.68-2.78,2.68-5.01,0-1.76-.43-3.36-1.73-4.61-1.35-1.3-3.07-1.72-4.9-1.72-.7,0-1.41.06-2.12.14M349.69,48.96c-1.82-.18-3.04-.25-4.58-1.37-.51-.37-1.02-1.07-1.42-1.57-.24-.29-.48-.59-.73-.87-.44-.49-.86-.99-1.27-1.5-.42-.52-.82-1.06-1.21-1.6l-7.19-9.82.85-.37c2.11-.91,4.06-2.17,5.58-3.91,2.18-2.48,3.1-5.51,3.1-8.78,0-1.65-.46-3.23-1.2-4.69-.69-1.37-1.61-2.62-2.6-3.78-1.15-1.33-2.51-2.44-4.04-3.3-1.6-.9-3.35-1.51-5.15-1.88l-.12-.02c-1.07-.22-2.11-.41-3.21-.48-.92-.06-1.84-.1-2.76-.12-.91-.02-1.82-.03-2.73-.03h-17.71c-.96,0-1.74.78-1.74,1.74v3.26c0,.96.78,1.74,1.74,1.74h2.72c.4,0,.82.03,1.2.15.1.03.21.07.31.12l.31.16.07.34c.03.14.05.28.07.42.14.93.17,1.88.17,2.82v29.07c0,.69-.02,1.39-.07,2.08-.03.37-.06.78-.15,1.14l-.06.24-.19.16c-.12.1-.25.17-.4.22-.39.15-.85.18-1.26.18h-2.72c-.96,0-1.74.78-1.74,1.74v3.26c0,.96.78,1.74,1.74,1.74h21.62c.96,0,1.74-.78,1.74-1.74v-3.26c0-.96-.78-1.74-1.74-1.74h-2.79c-.38,0-.78-.03-1.15-.15-.1-.03-.2-.07-.29-.12l-.3-.16-.07-.33c-.03-.15-.05-.3-.08-.45-.14-.93-.17-1.88-.17-2.82v-11.32l15.68,21.33h0c.33.47.86.75,1.42.75h13.31c.96,0,1.74-.78,1.74-1.74,0-3.66,1.02-4.39-2.54-4.75Z"/>
      <path class="cls-5" d="M235.07,11.87c.07-.04.15-.07.23-.1.39-.13.84-.16,1.25-.16h2.58c.96,0,1.74-.78,1.74-1.74v-3.26c0-.96-.78-1.74-1.74-1.74h-17.64c-.96,0-1.74.78-1.74,1.74v3.26c0,.96.78,1.74,1.74,1.74h2.55c.41,0,.84.03,1.24.14.51.15.56.12.66.61.02.12.04.24.06.36.14.9.17,1.83.17,2.75v17.87c0,.64.02.5-.37.02l-22.68-27.8h0c-.33-.43-.84-.68-1.38-.68h-13.72c-.96,0-1.74.78-1.74,1.74v3.26c0,.96.78,1.74,1.74,1.74h.98c.4,0,.8,0,1.2.03.29.02.62.05.9.14.46.15.91.31,1.34.52.38.18.76.39,1.08.66h0s.04.04.04.04h.01c.13.11.25.21.36.32.14.14.28.28.42.42.2.21.39.42.58.63.2.22.19.15.19.44v30.05c0,.68-.02,1.36-.08,2.04-.03.35-.06.71-.14,1.05l-.08.34-.31.16c-.08.04-.16.07-.24.1-.4.13-.86.16-1.28.16h-2.55c-.96,0-1.74.78-1.74,1.74v3.26c0,.96.78,1.74,1.74,1.74h17.64c.96,0,1.74-.78,1.74-1.74v-3.26c0-.96-.78-1.74-1.74-1.74h-2.58c-.41,0-.84-.03-1.24-.14-.06-.02-.11-.03-.17-.06l-.4-.15-.07-.42c-.02-.11-.03-.21-.05-.32-.13-.91-.16-1.85-.16-2.77v-20.13l25.25,30.78h0c.33.43.84.68,1.38.68h2.65c.96,0,1.74-.78,1.74-1.74V15.47c0-.68.02-1.37.08-2.05.03-.35.06-.72.14-1.06l.08-.34.31-.16Z"/>
      <path class="cls-9" d="M232.99,15.47v38.99c0,.14-.12.26-.26.26h-2.65c-.09,0-.17-.05-.21-.11l-27.9-34v24.26c0,.52.02,1.88.18,2.98.09.63.22,1.16.4,1.36.36.4.83.64,1.34.79.53.15,1.1.2,1.64.2h2.58c.14,0,.26.12.26.26v3.26c0,.14-.12.26-.26.26h-17.64c-.14,0-.26-.12-.26-.26v-3.26c0-.14.12-.26.26-.26h2.55c.58,0,1.2-.06,1.75-.24.53-.18,1.01-.47,1.34-.95.23-.33.36-1.14.43-1.96.07-.86.08-1.73.08-2.17V14.32c0-.35,0-.27-.23-.54-.11-.13-.21-.26-.33-.39-.21-.24-.42-.46-.63-.68-.15-.15-.3-.31-.47-.47-.16-.15-.32-.3-.49-.42l-.03-.02c-.41-.33-.88-.61-1.37-.84-.5-.24-1.03-.43-1.53-.6-.34-.11-.79-.17-1.24-.2-.46-.03-.93-.04-1.31-.04h-.98c-.14,0-.26-.12-.26-.26v-3.26c0-.14.12-.26.26-.26h13.72c.09,0,.17.04.22.11l25.69,31.5V15.47c0-.54-.02-1.88-.18-2.97-.09-.63-.23-1.17-.43-1.38-.36-.4-.83-.64-1.34-.79-.53-.15-1.1-.2-1.64-.2h-2.55c-.14,0-.26-.12-.26-.26v-3.26c0-.14.12-.26.26-.26h17.64c.14,0,.26.12.26.26v3.26c0,.14-.12.26-.26.26h-2.58c-.58,0-1.19.06-1.73.24-.52.18-.99.47-1.32.95-.23.34-.36,1.14-.43,1.97-.07.86-.08,1.73-.08,2.18M178.23,6.62l.6,11.83c0,.14-.1.27-.25.27h-.01s-3.13,0-3.13,0c-.13,0-.24-.1-.26-.23l-.15-.78c-.08-.41-.16-.81-.25-1.2-.09-.4-.19-.79-.29-1.18-.07-.24-.14-.49-.22-.73-.08-.24-.17-.48-.28-.7-.24-.52-.55-.96-.92-1.33-.37-.37-.82-.66-1.34-.88-.48-.2-1.26-.3-2.06-.35-.8-.05-1.62-.06-2.17-.06h-11.15v15.38h8.7c.58,0,1.46-.02,2.31-.14.82-.12,1.61-.33,2.04-.7.56-.5.92-1.25,1.15-2.06.23-.83.33-1.72.37-2.46l.05-.93c0-.14.12-.25.26-.25h0s3.21,0,3.21,0c.14,0,.26.12.26.26v17.64c0,.14-.12.26-.26.26h-3.13c-.14,0-.25-.11-.26-.24l-.11-.83c-.06-.44-.13-.88-.2-1.33-.07-.44-.15-.88-.25-1.31h0c-.04-.19-.1-.43-.15-.64-.06-.21-.13-.42-.21-.58-.41-.8-1.24-1.25-2.18-1.51-.97-.26-2.05-.32-2.88-.32h-8.7v14.54c0,.29,0,.58,0,.87v.18c0,.17,0,.35.02.49.03.23.08.48.17.71.08.2.2.38.38.48.13.07.37.12.65.16.46.06.99.07,1.27.07h7.65c.48,0,.95,0,1.38-.01.45-.01.91-.03,1.38-.06.29-.02.59-.04.89-.08.3-.03.59-.08.86-.14.68-.15,1.3-.4,1.88-.73.58-.33,1.11-.75,1.6-1.24.8-.8,1.53-1.78,2.2-2.81.67-1.03,1.28-2.12,1.8-3.12l.28-.53c.05-.09.14-.14.23-.14h0s3.33,0,3.33,0c.14,0,.26.12.26.26,0,.03,0,.07-.02.09l-4.56,13.27c-.04.11-.14.18-.25.18h-36.45c-.14,0-.26-.12-.26-.26v-3.26c0-.14.12-.26.26-.26h2.58c.44,0,.86-.06,1.27-.16.41-.1.81-.26,1.2-.46.32-.17.55-.41.72-.7.17-.3.27-.66.33-1.03v-.02s0,0,0,0h0c.05-.28.07-.62.08-.91v-.09c.02-.35.03-.7.03-1.04,0-.29,0-.66,0-1.05V15.49c0-.55,0-1.11-.04-1.65-.03-.55-.08-1.1-.16-1.62-.03-.17-.09-.52-.18-.81-.05-.16-.11-.31-.16-.37-.34-.38-.85-.61-1.39-.74-.56-.14-1.17-.17-1.69-.17h-2.58c-.14,0-.26-.12-.26-.26v-3.26c0-.14.12-.26.26-.26h36.66c.14,0,.26.12.26.26h0ZM135.64,29.92c0,3.2-.48,6.25-1.51,9.1-.98,2.7-2.47,5.21-4.53,7.48-2.63,2.9-5.87,4.77-9.4,5.91-3.52,1.14-7.32,1.56-11.06,1.56h-21.13c-.14,0-.26-.12-.26-.26v-3.26c0-.14.12-.26.26-.26h2.67c.6,0,1.2-.07,1.73-.26.51-.19.96-.51,1.3-1.01.23-.35.36-1.17.44-2.01.07-.87.08-1.75.08-2.21V15.63c0-.56-.02-1.92-.18-3.03-.1-.64-.23-1.19-.44-1.42-.36-.41-.81-.67-1.31-.83-.51-.16-1.06-.22-1.61-.22h-2.67c-.14,0-.26-.12-.26-.26v-3.26c0-.14.12-.26.26-.26h19.33c1.3,0,2.62.03,3.95.09,1.32.07,2.64.17,3.94.33,1.01.12,2.03.28,3.04.49,1.01.21,2.02.47,2.99.79,2.38.8,4.49,1.94,6.33,3.42,1.84,1.48,3.4,3.29,4.68,5.44,1.15,1.93,1.98,3.97,2.53,6.08.58,2.24.84,4.57.84,6.93ZM77.67,50.45v3.26c0,.14-.12.26-.26.26h-21.33c-.14,0-.26-.12-.26-.26v-3.26c0-.14.12-.26.26-.26h2.58c.59,0,1.19-.06,1.73-.23.53-.17,1.01-.46,1.37-.92.17-.22.29-.76.37-1.38.14-1.09.16-2.43.16-2.96V15.63c0-.47,0-.93-.02-1.37-.02-.45-.04-.91-.08-1.36-.02-.21-.05-.45-.09-.7-.04-.23-.09-.46-.16-.64-.07-.17-.18-.32-.32-.45-.15-.14-.32-.25-.5-.35-.39-.21-.78-.37-1.19-.48-.41-.11-.83-.16-1.28-.16h-2.58c-.14,0-.26-.12-.26-.26v-3.26c0-.14.12-.26.26-.26h21.33c.14,0,.26.12.26.26v3.26c0,.14-.12.26-.26.26h-2.63c-.58,0-1.18.06-1.72.24-.53.17-1,.46-1.36.91-.19.24-.32.78-.4,1.41-.15,1.07-.17,2.38-.17,2.93v29.07c0,.47,0,.93.02,1.37.02.45.04.91.08,1.36.02.21.05.45.08.7.04.23.09.46.15.63h0c.26.62.75.98,1.34,1.18.62.22,1.33.27,1.98.27h2.63c.14,0,.26.12.26.26ZM48.06,39.86l-4.42,13.93c-.04.11-.14.18-.25.18h0s-36.68,0-36.68,0c-.14,0-.26-.12-.26-.26v-3.26c0-.14.12-.26.26-.26h2.7c.62,0,1.23-.07,1.76-.27.52-.2.99-.52,1.33-1.04h.01c.22-.36.34-1.17.41-2.01.07-.87.08-1.77.08-2.21V15.63c0-.56-.02-1.91-.19-3.02-.1-.64-.24-1.2-.44-1.43-.36-.41-.82-.67-1.33-.83-.52-.16-1.08-.22-1.63-.22h-2.7c-.14,0-.26-.12-.26-.26v-3.26c0-.14.12-.26.26-.26h22.48c.14,0,.26.12.26.26v3.27c0,.14-.12.26-.26.26,0,0-.02,0-.03,0h-.97c-.83-.02-2.14,0-3.35.24-1.16.24-2.23.67-2.63,1.49-.19.38-.29,1.27-.35,2.19-.05.93-.06,1.88-.06,2.35v28.36c0,.4,0,1.05.06,1.68.05.61.15,1.21.33,1.54.11.22.44.37.81.49.39.12.83.18,1.12.22h6.71c.61,0,1.21,0,1.78-.02.58-.02,1.17-.04,1.77-.08.37-.03.75-.06,1.13-.1.38-.05.75-.11,1.1-.19.89-.21,1.69-.55,2.42-1,.73-.45,1.4-1.03,2-1.71.68-.77,1.3-1.74,1.84-2.76.54-1.02,1.02-2.09,1.41-3.05l.31-.76c.05-.12.17-.18.29-.16h0s2.94.64,2.94.64c.14.03.23.17.2.31,0,.02,0,.03-.01.04ZM105.08,14.02v33.01c1.27.21,2.55.35,3.83.35,4.36,0,7.98-1.4,10.8-4.8,2.84-3.44,3.85-7.65,3.85-12.04s-.97-8.72-3.87-12.15c-2.88-3.41-6.69-4.69-11.06-4.69-1.19,0-2.39.13-3.56.33ZM320.55,13.76v12.86c2.11-.12,4.29-.57,6.07-1.67,1.92-1.18,2.68-2.78,2.68-5.01,0-1.76-.43-3.36-1.73-4.61-1.35-1.3-3.07-1.72-4.9-1.72-.7,0-1.41.06-2.12.14ZM337.9,11.68c.92,1.07,1.77,2.23,2.4,3.48.64,1.26,1.04,2.61,1.04,4.03,0,3.28-1.01,5.83-2.74,7.8-1.87,2.14-4.58,3.57-7.72,4.47l8.4,11.47c.4.55.82,1.1,1.25,1.64.43.54.87,1.06,1.33,1.57.2.22.43.5.68.81.55.68,1.21,1.47,1.7,1.83,1.78,1.29,3.12,1.43,5.3,1.65l.97.1c.13.01.23.13.23.26h0v2.93c0,.14-.12.26-.26.26h-13.31c-.09,0-.17-.05-.22-.12l-15.43-20.99c-.34.01-.68.02-1.03.03-.42,0-.81.02-1.17.02-.13,0-.3,0-.51,0h-.24s0,11.79,0,11.79c0,.56.02,1.92.19,3.04.1.64.24,1.19.44,1.42.36.4.81.66,1.3.82.5.16,1.05.22,1.61.22h2.79c.14,0,.26.12.26.26v3.26c0,.14-.12.26-.26.26h-21.62c-.14,0-.26-.12-.26-.26v-3.26c0-.14.12-.26.26-.26h2.72c.62,0,1.24-.07,1.78-.27.53-.2.99-.52,1.33-1.03.22-.33.35-1.15.42-1.99.07-.87.08-1.76.08-2.2V15.63c0-.54-.02-1.92-.19-3.04-.09-.64-.23-1.18-.43-1.39l-.02-.02c-.37-.41-.83-.67-1.33-.83-.52-.16-1.08-.22-1.64-.22h-2.72c-.14,0-.26-.12-.26-.26v-3.26c0-.14.12-.26.26-.26h17.71c.87,0,1.77,0,2.69.03.91.02,1.81.06,2.7.12,1.24.08,1.83.21,3,.45l.12.02c1.69.35,3.28.92,4.73,1.72,1.36.76,2.59,1.74,3.64,2.97Z"/>
      <path class="cls-5" d="M320.55,13.76v12.86c2.11-.12,4.29-.57,6.07-1.67,1.92-1.18,2.68-2.78,2.68-5.01,0-1.76-.43-3.36-1.73-4.61-1.35-1.3-3.07-1.72-4.9-1.72-.7,0-1.41.06-2.12.14M318.33,11.48v17.02h.91c2.93,0,6.02-.48,8.54-2.03,2.59-1.6,3.74-3.91,3.74-6.9,0-2.37-.66-4.53-2.41-6.21-1.77-1.69-4-2.34-6.43-2.34-1.4,0-2.92.21-4.34.45Z"/>
      <path class="cls-5" d="M105.08,14.02v33.01c1.27.21,2.55.35,3.83.35,4.36,0,7.98-1.4,10.8-4.8,2.84-3.44,3.85-7.65,3.85-12.04s-.97-8.72-3.87-12.15c-2.88-3.41-6.69-4.69-11.06-4.69-1.19,0-2.39.13-3.56.33M102.79,11.77v36.78c1.99.42,4.11.74,6.12.74,5.06,0,9.32-1.71,12.56-5.63,3.19-3.86,4.38-8.56,4.38-13.5s-1.15-9.77-4.41-13.63c-3.31-3.92-7.74-5.5-12.81-5.5-1.95,0-3.94.31-5.85.75Z"/>
      <path class="cls-1" d="M105.08,14.02v33.01c1.27.21,2.55.35,3.83.35,4.36,0,7.98-1.4,10.8-4.8,2.84-3.44,3.85-7.65,3.85-12.04s-.97-8.72-3.87-12.15c-2.88-3.41-6.69-4.69-11.06-4.69-1.19,0-2.39.13-3.56.33M104.89,13.3c1.24-.21,2.49-.35,3.75-.35,4.59,0,8.6,1.37,11.62,4.95,3.02,3.57,4.04,8.04,4.04,12.63s-1.07,8.94-4.02,12.51c-2.96,3.57-6.79,5.07-11.37,5.07-1.34,0-2.69-.15-4.01-.37l-.56-.09V13.4l.55-.1Z"/>
      <path class="cls-1" d="M320.55,13.76v12.86c2.11-.12,4.29-.57,6.07-1.67,1.92-1.18,2.68-2.78,2.68-5.01,0-1.76-.43-3.36-1.73-4.61-1.35-1.3-3.07-1.72-4.9-1.72-.7,0-1.41.06-2.12.14M320.46,13.03c.73-.09,1.47-.15,2.21-.15,2.03,0,3.92.49,5.41,1.92,1.45,1.39,1.96,3.17,1.96,5.14,0,2.48-.89,4.32-3.04,5.64-1.91,1.18-4.2,1.65-6.42,1.77l-.78.04v-14.29l.65-.08Z"/>
      <path class="cls-9" d="M346.44,1.83c1.25,0,2.38.51,3.2,1.32.82.82,1.32,1.95,1.32,3.19s-.51,2.38-1.32,3.2c-.82.82-1.95,1.32-3.2,1.32s-2.38-.51-3.19-1.32c-.82-.82-1.32-1.95-1.32-3.2s.51-2.38,1.32-3.19c.82-.82,1.95-1.32,3.19-1.32M349.07,3.72c-.67-.67-1.6-1.09-2.63-1.09s-1.96.42-2.63,1.09c-.67.67-1.09,1.6-1.09,2.63s.42,1.96,1.09,2.63c.67.67,1.6,1.09,2.63,1.09s1.96-.42,2.63-1.09,1.09-1.6,1.09-2.63-.42-1.96-1.09-2.63Z"/>
      <path class="cls-10" d="M349.02,8.58h-1.44s-.02,0-.02-.01l-1.46-2.07h-.26v1.25c0,.19,0,.3.01.34.02.12.08.2.18.25.07.04.21.06.42.06.01,0,.03.01.03.03v.13s-.01.03-.03.03h-2.33s-.03-.01-.03-.03v-.13s.01-.03.03-.03c.31,0,.5-.07.57-.2.02-.04.04-.15.04-.45v-2.95c0-.19,0-.3-.01-.34-.02-.12-.08-.2-.18-.25-.07-.04-.21-.06-.42-.06-.01,0-.03-.01-.03-.03v-.13s.01-.03.03-.03h2.12c.46,0,.79.02,1,.06.37.08.66.24.85.48.16.21.25.46.25.74,0,.59-.33.99-1,1.16l1.07,1.51c.14.2.24.32.3.37.09.06.19.1.31.11.01,0,.02.01.02.03v.13s-.01.03-.03.03ZM347.6,8.53h1.4v-.08c-.12-.01-.22-.05-.31-.12-.06-.05-.17-.17-.31-.38l-1.09-1.54s0-.02,0-.02c0,0,0-.01.02-.02.67-.17.99-.53.99-1.12,0-.27-.08-.51-.24-.71-.19-.23-.46-.39-.82-.46-.2-.04-.54-.06-.99-.06h-2.09v.08c.2,0,.33.02.41.06.11.05.18.15.21.28,0,.05.01.16.01.35v2.95c0,.25-.02.4-.05.47-.07.15-.26.22-.59.23v.08h2.28v-.08c-.2,0-.33-.02-.41-.06-.11-.06-.18-.15-.21-.29-.01-.04-.02-.15-.02-.35v-1.27s.01-.03.03-.03h.3s.02,0,.02.01l1.46,2.07ZM346.01,6.27h-.19s-.03-.01-.03-.03v-2s.01-.03.03-.03h.36c.7,0,1.06.35,1.06,1.05,0,.24-.05.44-.13.6-.11.18-.27.3-.48.36-.14.04-.34.05-.61.05ZM345.85,6.22h.17c.26,0,.46-.02.59-.05.2-.05.35-.17.45-.33.08-.14.13-.34.13-.57,0-.67-.33-1-1-1h-.33v1.95Z"/>
      <path class="cls-9" d="M347.22,5.26c0-.68-.34-1.02-1.03-1.02h-.36v2h.19c.27,0,.46-.02.6-.05.21-.06.36-.17.47-.34.09-.15.13-.34.13-.58M349.03,8.55h-1.44l-1.46-2.08h-.3v1.27c0,.19,0,.3.01.35.02.13.09.22.19.27.08.04.22.06.43.06v.13h-2.33v-.13c.32,0,.52-.07.59-.21.03-.06.04-.22.04-.46v-2.95c0-.19,0-.3-.01-.35-.02-.13-.09-.22-.19-.27-.08-.04-.22-.06-.43-.06v-.13h2.12c.46,0,.79.02.99.06.37.08.65.23.84.47.16.21.24.45.24.72,0,.6-.34.98-1.01,1.15l1.1,1.54c.14.2.25.32.31.37.09.07.2.11.32.11v.13Z"/>
      <path class="cls-1" d="M158.56,46.77h7.62c.44,0,.88,0,1.32-.01.42-.01.85-.03,1.27-.06.26-.02.51-.04.77-.07.2-.02.4-.05.6-.1.42-.1.82-.25,1.19-.46.4-.23.75-.51,1.07-.83.72-.72,1.33-1.56,1.88-2.41,1.05-1.61,1.65-1.79-.15-1.79h-3.13c-1.41,0-2.6-1.06-2.75-2.45l-.11-.79c-.06-.42-.12-.84-.19-1.26-.05-.33-.12-.66-.18-.99l-.04-.19c-.14-.63-.07-.66-.75-.84-.7-.19-1.5-.23-2.22-.23h-6.2v12.03c0,.15,0,.3,0,.45M157.83,46.78c0-.15,0-.31,0-.46v-.87s0-11.9,0-11.9h6.93c.8,0,1.64.04,2.42.25.36.1.72.2.96.51.21.27.25.57.32.89l.04.2c.07.34.13.68.19,1.02.07.43.13.85.19,1.28l.11.79h0c.11,1.03.99,1.81,2.02,1.81h3.13c.61,0,1.52-.05,1.81.62.2.46-.04.88-.3,1.25-.25.36-.51.7-.75,1.06-.58.89-1.22,1.77-1.98,2.52-.37.37-.78.7-1.23.95-.44.25-.9.43-1.39.54-.22.05-.45.08-.68.11-.27.03-.53.05-.8.07-.43.03-.87.05-1.3.06-.45.01-.89.01-1.34.01h-8.35v-.73Z"/>
      <path class="cls-1" d="M172.03,17.18c-.08-.36-.17-.71-.26-1.06-.06-.2-.11-.4-.18-.6-.05-.14-.1-.29-.17-.42-.11-.23-.24-.45-.42-.63-.15-.15-.32-.25-.51-.33-.3-.12-.96-.15-1.29-.18-.67-.05-1.34-.05-2-.05h-8.63v10.36h6.19c.65,0,1.31-.02,1.95-.12.21-.03.57-.09.79-.17.15-.2.27-.57.33-.79.17-.62.24-1.28.28-1.92.06-1.1.31-2.15.31-3.26v-.29c1.1,0,3.85.48,3.62-.54M169.14,18.5c-.05.95-.24,1.87-.29,2.82-.04.7-.11,1.4-.3,2.08-.09.33-.24.75-.45,1.03l-.13.17-.2.08c-.29.11-.64.17-.95.21-.68.1-1.37.13-2.06.13h-6.93v-11.83h9.37c.69,0,1.37,0,2.05.05.46.03,1.09.06,1.51.23.29.11.54.27.76.49.24.24.42.53.57.83.08.16.14.33.2.5.07.21.13.43.19.64.1.36.19.73.27,1.1.06.27.04.54-.09.79-.45.87-1.87.79-2.7.75-.27-.01-.54-.04-.82-.06Z"/>
      <g>
        <path class="cls-7" d="M278.52,59.76c-3.46,1.42-7.25,2.21-11.22,2.21-8.14,0-15.51-3.3-20.84-8.63-5.33-5.33-8.63-12.7-8.63-20.84,0-6.26,1.95-12.07,5.28-16.84-2.06,4.17-3.23,8.86-3.23,13.83,0,8.61,3.49,16.4,9.13,22.05,5.64,5.64,13.44,9.13,22.05,9.13,2.57,0,5.07-.31,7.46-.9"/>
        <path class="cls-9" d="M291.21,9.32c-5.16-5.16-12.28-8.35-20.15-8.35s-15,3.19-20.15,8.35c-5.16,5.16-8.35,12.28-8.35,20.15s3.19,15,8.35,20.15c5.16,5.16,12.28,8.35,20.15,8.35s15-3.19,20.15-8.35c5.16-5.16,8.35-12.28,8.35-20.15s-3.19-15-8.35-20.15M271.06,0c8.14,0,15.51,3.3,20.84,8.63,5.33,5.33,8.63,12.7,8.63,20.84s-3.3,15.51-8.63,20.84c-5.33,5.33-12.7,8.63-20.84,8.63s-15.51-3.3-20.84-8.63c-5.33-5.33-8.63-12.7-8.63-20.84s3.3-15.51,8.63-20.84c5.33-5.33,12.7-8.63,20.84-8.63Z"/>
        <path class="cls-9" d="M299.46,26.26c-.83-7.27-4.43-14.23-10.6-19.13-6.17-4.9-13.76-6.84-21.03-6.01-7.27.83-14.23,4.43-19.13,10.6-4.9,6.17-6.84,13.76-6.01,21.03.83,7.27,4.43,14.23,10.6,19.13,6.17,4.9,13.76,6.84,21.03,6.01,7.27-.83,14.23-4.43,19.13-10.6,4.9-6.17,6.84-13.76,6.01-21.03M289.36,6.51c6.34,5.04,10.04,12.19,10.89,19.66.85,7.47-1.14,15.27-6.18,21.61-5.04,6.34-12.19,10.04-19.66,10.89-7.47.85-15.27-1.14-21.61-6.18-6.34-5.04-10.04-12.19-10.89-19.66-.85-7.47,1.14-15.27,6.18-21.61,5.04-6.34,12.19-10.04,19.66-10.89,7.47-.85,15.27,1.14,21.61,6.18Z"/>
        <path class="cls-1" d="M286.52,10.07c10.73,8.53,12.51,24.14,3.98,34.87-8.53,10.73-24.14,12.51-34.87,3.98-10.73-8.53-12.51-24.14-3.98-34.87,8.53-10.73,24.14-12.51,34.87-3.98M288.04,8.17c11.78,9.37,13.74,26.51,4.37,38.29-9.37,11.78-26.51,13.74-38.29,4.37-11.78-9.37-13.74-26.51-4.37-38.29,9.37-11.78,26.51-13.74,38.29-4.37Z"/>
        <path class="cls-3" d="M271.71,44.09s-.06,0-.09,0h.09ZM279.19,23.33c3.5.38,5.43,2.03,7.78,5.63,2.06,3.44,2.41,8.42,1.02,12.52-1.76,5.17-6.27,9.55-11.64,11.07-2.18.62-5.02,1.24-7.03-.51-1.92-1.68-2.3-4.56-.85-6.44.76-.98,1.88-1.49,3.04-1.51h0c.23-.02.46-.02.7-.02.38.06.76.1,1.13.12,1.28.15,1.9.03,3.29-.35,1.97-.55,3.98-1.51,5.34-3.26,3.66-4.72,4.6-10.81-.25-15.04-.83-.72-1.87-1.27-2.69-1.65-1.38-.63-2.15-.81-.34-.61.15.02.31.03.49.05Z"/>
        <path class="cls-2" d="M258.82,22.06s.04-.05.06-.07l-.06.07ZM254.34,15c2.4-.52,4.77,1,5.29,3.41.27,1.26-.02,2.51-.7,3.49h0c-.35.57-.76.94-1.18,1.45-3.79,4.14-.83,11.45,2.93,14.25,5.39,4.03,12.74,3.22,16.75-1.3,1.65-1.86,3.65-9.02,3.59-4.98-.02,1.3-.08,2.77-.66,4.31-2.82,7.47-14.16,10.39-21.21,7.72-15.81-5.99-12.67-26.65-4.81-28.35Z"/>
        <path class="cls-6" d="M284.2,23.87s.02.06.03.09l-.03-.09ZM292.35,23.85c-.87,2.37-3.38,3.59-5.62,2.73-1.17-.45-2.03-1.39-2.46-2.52h0c-.28-.62-.35-1.17-.55-1.81-1.36-5.66-8.28-7.22-13.16-5.25-5.06,2.03-10.69,8.14-6.97,13.97l.05.07h0s0,0,0,0h0s.03.06.03.06v.02s.01,0,.01,0h0s.04.05.04.05v.02s.01,0,.01,0h0s.02.04.02.04v.02s.02.01.02.01h0s0,0,0,0l.04.05h.01s0,.02,0,.02l.03.04v.02s.02.01.02.01h0s.01.02.01.02l.03.04h0s0,0,0,0h0s.02.03.02.03v.02s.02.01.02.01h0s.01.02.01.02l.03.03h0s0,.02,0,.02v.02s.03.02.03.02v.02s.02,0,.02,0h0s.03.04.03.04v.02s.02,0,.02,0h0s.01.02.01.02v.02s.03.02.03.02h0s0,.02,0,.02v.02s.03.02.03.02v.02s.02,0,.02,0h0s.03.04.03.04v.02s.02,0,.02,0h0s.01.03.01.03l.02.02v.02s.03.02.03.02v.02s.03.02.03.02h0s.03.03.03.03h0c1.51,1.86,4.49,2.89,6.82,2.6h.06s.06-.01.06-.01h.06s.06-.02.06-.02h.06s.06-.02.06-.02h.06s.06-.02.06-.02h.06s.06-.02.06-.02h.06s.06-.02.06-.02h.06s.06-.02.06-.02h.06s0-.01,0-.01h.06s.06-.03.06-.03h.06s0-.01,0-.01h.06s.06-.03.06-.03l.06-.02h0s.06-.02.06-.02l.06-.02h0l.06-.02.06-.02.06-.02.06-.02.06-.02.06-.02.06-.02.06-.02.06-.02.06-.02.06-.02.06-.02.06-.02.06-.02.06-.02.06-.02.06-.03.06-.03h0s.06-.03.06-.03l.06-.03.06-.03.06-.03h0s.06-.03.06-.03h0s.06-.03.06-.03l.06-.03.06-.03.05-.03.06-.03.05-.03.05-.03.05-.04.05-.04h0s.05-.04.05-.04h0l.05-.04h0s.05-.04.05-.04l.05-.04h0s.05-.04.05-.04h0l.05-.04.05-.04.05-.04h0s.05-.04.05-.04l.05-.04.05-.04.05-.05h0s.05-.05.05-.05l.05-.05.05-.05.05-.05.05-.05.05-.05.05-.05.05-.05.05-.05.05-.05.05-.05.05-.05.05-.06.05-.06h0s.05-.06.05-.06h0l.05-.06h0s.05-.06.05-.06l.05-.06.05-.06h0l.05-.06.05-.06.05-.06.05-.06.04-.06.04-.06.04-.06.04-.07.04-.07.04-.07.04-.07.04-.07.04-.07.04-.07.04-.07.04-.07.04-.07.04-.07.04-.07.04-.07.04-.07.04-.08.04-.08.03-.08.03-.08.03-.08.03-.08.03-.08.03-.08.03-.08.03-.08.03-.08.03-.08.03-.08.03-.08.03-.08.03-.08.02-.09.02-.09.02-.09.02-.09.02-.09h0s0-.02,0-.02h0s0-.05,0-.05h0s0-.03,0-.03h0s.01-.07.01-.07h0s0-.01,0-.01l.02-.08h0s0-.01,0-.01v-.04s.01-.01.01-.01h0s0-.03,0-.03h0s0-.01,0-.01h0s0-.03,0-.03h0s0-.03,0-.03h0s0-.03,0-.03h0s0-.03,0-.03h0s0-.03,0-.03h0s0-.03,0-.03h0s0-.03,0-.03h0s0-.01,0-.01h0s0-.03,0-.03h0s0-.03,0-.03h0s0-.03,0-.03h0s0-.01,0-.01h0s0-.03,0-.03h0s0-.03,0-.03h0s0-.05,0-.05h0s0-.03,0-.03h0s0-.03,0-.03h0c.07-.26.13-.52.19-.78.3-1.47.34-2.57.42-2.49.72.67.77,2.85.38,4.97-.18.98-.45,2.28-.86,3.1-1.47,2.92-4.33,4.35-7.68,4.56-3.88.06-7.72-2.69-9.3-5.94-.97-2.01-1.65-4.34-1.34-6.66.27-2.01.97-4.67,2.35-6.96,1.36-2.27,3.38-4.19,4.96-5.42,13.36-10.45,28.48,3.58,25.65,11.33Z"/>
        <g>
          <path class="cls-9" d="M270.24,19.17s.08-.02.12,0c.03.08.08.16.1.24.1.37.24.72.39,1.07.31.71.7,1.39,1.11,2.05.47.75.99,1.46,1.44,2.21.41.68.78,1.38,1.01,2.14.18.59.26,1.22.19,1.83-.11.96-.5,1.9-1.17,2.61-.79.85-1.95,1.32-3.11,1.31-.72.01-1.44-.15-2.07-.48-.88-.45-1.58-1.24-1.94-2.17-.24-.59-.37-1.24-.34-1.88.02-.66.21-1.31.46-1.92.33-.78.78-1.5,1.24-2.21.47-.71.96-1.41,1.38-2.16.42-.74.81-1.51,1.05-2.33.02-.12.08-.22.13-.33ZM269.87,21.87c-.43.74-.87,1.48-1.28,2.22-.27.5-.57.99-.83,1.49-.2.39-.4.79-.48,1.23-.03.18-.04.38.04.55.06.15.22.24.37.27.15.01.27-.09.37-.2.17-.2.28-.45.37-.69.23-.59.38-1.2.54-1.81.22-.8.44-1.6.7-2.39.07-.23.16-.45.22-.67Z"/>
          <path class="cls-8" d="M269.87,21.87c-.06.23-.15.45-.22.67-.26.79-.48,1.59-.7,2.39-.16.61-.31,1.22-.54,1.81-.1.24-.21.49-.37.69-.09.11-.22.21-.37.2-.15-.03-.31-.12-.37-.27-.08-.17-.07-.37-.04-.55.08-.44.28-.84.48-1.23.26-.51.56-.99.83-1.49.42-.75.86-1.48,1.28-2.22Z"/>
        </g>
      </g>
    </g>
  </g>
</svg>