<?xml version="1.0" encoding="utf-8"?>
<!-- Generator: Adobe Illustrator 28.1.0, SVG Export Plug-In . SVG Version: 6.00 Build 0)  -->
<svg version="1.1" id="Capa_1" xmlns="http://www.w3.org/2000/svg" xmlns:xlink="http://www.w3.org/1999/xlink" x="0px" y="0px"
	 viewBox="0 0 59.1 59.2" style="enable-background:new 0 0 59.1 59.2;" xml:space="preserve">
<style type="text/css">
	.st0{fill:#1E1F24;}
</style>
<path class="st0" d="M1.6,57.7c1,1,2.3,1.5,3.5,1.5s2.6-0.5,3.5-1.5l21-21l21,21c1,1,2.3,1.5,3.5,1.5s2.6-0.5,3.5-1.5
	c2-2,2-5.1,0-7.1l-21-21l21-21c2-2,2-5.1,0-7.1s-5.1-2-7.1,0l-21,21L8.6,1.7c-2-2-5.1-2-7.1,0s-2,5.1,0,7.1l21,21L1.6,50.7
	C-0.4,52.6-0.4,55.8,1.6,57.7z"/>
</svg>
